<svg width="187" height="143" viewBox="0 0 187 143" fill="none" xmlns="http://www.w3.org/2000/svg">
<g opacity="0.2">
<path d="M47.4375 105.188H98.1875V116.875H47.4375V105.188ZM47.4375 75.9688H123.562V87.6562H47.4375V75.9688ZM47.4375 134.406H79.1562V146.094H47.4375V134.406Z" fill="#536FAE"/>
<path d="M142.594 29.2188H123.562V23.375C123.562 20.2753 122.226 17.3025 119.846 15.1107C117.467 12.9189 114.24 11.6875 110.875 11.6875H60.125C56.7601 11.6875 53.533 12.9189 51.1536 15.1107C48.7742 17.3025 47.4375 20.2753 47.4375 23.375V29.2188H28.4062C25.0413 29.2188 21.8142 30.4501 19.4348 32.6419C17.0555 34.8338 15.7188 37.8065 15.7188 40.9062V163.625C15.7188 166.725 17.0555 169.697 19.4348 171.889C21.8142 174.081 25.0413 175.312 28.4062 175.312H142.594C145.959 175.312 149.186 174.081 151.565 171.889C153.945 169.697 155.281 166.725 155.281 163.625V40.9062C155.281 37.8065 153.945 34.8338 151.565 32.6419C149.186 30.4501 145.959 29.2188 142.594 29.2188ZM60.125 23.375H110.875V46.75H60.125V23.375ZM142.594 163.625H28.4062V40.9062H47.4375V58.4375H123.562V40.9062H142.594V163.625Z" fill="#536FAE"/>
</g>
</svg>
