<svg width="30" height="30" viewBox="0 0 30 30" fill="none" xmlns="http://www.w3.org/2000/svg">
<path d="M21.6 10.9C21.7756 11.0758 21.8742 11.3141 21.8742 11.5625C21.8742 11.8109 21.7756 12.0492 21.6 12.225L19.1 14.725C18.9242 14.9006 18.6859 14.9992 18.4375 14.9992C18.1891 14.9992 17.9508 14.9006 17.775 14.725L16.525 13.475C16.4329 13.3892 16.359 13.2857 16.3078 13.1707C16.2565 13.0557 16.229 12.9315 16.2268 12.8057C16.2245 12.6798 16.2477 12.5547 16.2948 12.438C16.342 12.3213 16.4122 12.2152 16.5012 12.1262C16.5902 12.0372 16.6963 11.967 16.813 11.9198C16.9297 11.8727 17.0548 11.8495 17.1807 11.8518C17.3065 11.854 17.4307 11.8815 17.5457 11.9328C17.6607 11.984 17.7642 12.0579 17.85 12.15L18.4375 12.7375L20.275 10.9C20.4508 10.7244 20.6891 10.6258 20.9375 10.6258C21.1859 10.6258 21.4242 10.7244 21.6 10.9ZM21.6 19.1C21.6921 19.0142 21.766 18.9107 21.8172 18.7957C21.8685 18.6807 21.896 18.5565 21.8982 18.4307C21.9005 18.3048 21.8773 18.1797 21.8302 18.063C21.783 17.9463 21.7128 17.8402 21.6238 17.7512C21.5348 17.6622 21.4287 17.592 21.312 17.5448C21.1953 17.4977 21.0702 17.4745 20.9443 17.4768C20.8185 17.479 20.6943 17.5065 20.5793 17.5578C20.4643 17.609 20.3608 17.6829 20.275 17.775L18.4375 19.6125L17.85 19.025C17.7642 18.9329 17.6607 18.859 17.5457 18.8078C17.4307 18.7565 17.3065 18.729 17.1807 18.7268C17.0548 18.7245 16.9297 18.7477 16.813 18.7948C16.6963 18.842 16.5902 18.9122 16.5012 19.0012C16.4122 19.0902 16.342 19.1963 16.2948 19.313C16.2477 19.4297 16.2245 19.5548 16.2268 19.6807C16.229 19.8065 16.2565 19.9307 16.3078 20.0457C16.359 20.1607 16.4329 20.2642 16.525 20.35L17.775 21.6C17.9508 21.7756 18.1891 21.8742 18.4375 21.8742C18.6859 21.8742 18.9242 21.7756 19.1 21.6L21.6 19.1ZM8.75 12.8125C8.75 12.5639 8.84877 12.3254 9.02459 12.1496C9.2004 11.9738 9.43886 11.875 9.6875 11.875H14.0625C14.3111 11.875 14.5496 11.9738 14.7254 12.1496C14.9012 12.3254 15 12.5639 15 12.8125C15 13.0611 14.9012 13.2996 14.7254 13.4754C14.5496 13.6512 14.3111 13.75 14.0625 13.75H9.6875C9.43886 13.75 9.2004 13.6512 9.02459 13.4754C8.84877 13.2996 8.75 13.0611 8.75 12.8125ZM9.6875 18.75C9.43886 18.75 9.2004 18.8488 9.02459 19.0246C8.84877 19.2004 8.75 19.4389 8.75 19.6875C8.75 19.9361 8.84877 20.1746 9.02459 20.3504C9.2004 20.5262 9.43886 20.625 9.6875 20.625H14.0625C14.3111 20.625 14.5496 20.5262 14.7254 20.3504C14.9012 20.1746 15 19.9361 15 19.6875C15 19.4389 14.9012 19.2004 14.7254 19.0246C14.5496 18.8488 14.3111 18.75 14.0625 18.75H9.6875ZM19.9825 5C19.9056 4.31249 19.5781 3.67742 19.0624 3.21621C18.5468 2.75501 17.8793 2.50002 17.1875 2.5H12.8125C12.1207 2.50002 11.4532 2.75501 10.9376 3.21621C10.4219 3.67742 10.0944 4.31249 10.0175 5H7.8125C7.06658 5 6.35121 5.29632 5.82376 5.82376C5.29632 6.35121 5 7.06658 5 7.8125V24.6875C5 25.4334 5.29632 26.1488 5.82376 26.6762C6.35121 27.2037 7.06658 27.5 7.8125 27.5H22.1875C22.5568 27.5 22.9226 27.4273 23.2638 27.2859C23.605 27.1446 23.9151 26.9374 24.1762 26.6762C24.4374 26.4151 24.6446 26.105 24.7859 25.7638C24.9273 25.4226 25 25.0568 25 24.6875V7.8125C25 7.44316 24.9273 7.07743 24.7859 6.7362C24.6446 6.39497 24.4374 6.08493 24.1762 5.82376C23.9151 5.5626 23.605 5.35543 23.2638 5.21409C22.9226 5.07275 22.5568 5 22.1875 5H19.9825ZM12.8125 8.125H17.1875C18.1625 8.125 19.0213 7.62875 19.5263 6.875H22.1875C22.4361 6.875 22.6746 6.97377 22.8504 7.14959C23.0262 7.3254 23.125 7.56386 23.125 7.8125V24.6875C23.125 24.9361 23.0262 25.1746 22.8504 25.3504C22.6746 25.5262 22.4361 25.625 22.1875 25.625H7.8125C7.56386 25.625 7.3254 25.5262 7.14959 25.3504C6.97377 25.1746 6.875 24.9361 6.875 24.6875V7.8125C6.875 7.56386 6.97377 7.3254 7.14959 7.14959C7.3254 6.97377 7.56386 6.875 7.8125 6.875H10.4737C10.9787 7.62875 11.8375 8.125 12.8125 8.125ZM12.8125 4.375H17.1875C17.4361 4.375 17.6746 4.47377 17.8504 4.64959C18.0262 4.8254 18.125 5.06386 18.125 5.3125C18.125 5.56114 18.0262 5.7996 17.8504 5.97541C17.6746 6.15123 17.4361 6.25 17.1875 6.25H12.8125C12.5639 6.25 12.3254 6.15123 12.1496 5.97541C11.9738 5.7996 11.875 5.56114 11.875 5.3125C11.875 5.06386 11.9738 4.8254 12.1496 4.64959C12.3254 4.47377 12.5639 4.375 12.8125 4.375Z" fill="#536FAE"/>
</svg>
