<svg width="32" height="32" viewBox="0 0 32 32" fill="none" xmlns="http://www.w3.org/2000/svg">
<path fill-rule="evenodd" clip-rule="evenodd" d="M11.2151 9.04053L11.609 9.95967L8.24203 11.4026L2.82404 19.2834L2 18.7168L7.58201 10.5975L11.2151 9.04053ZM16.0959 14.4758L10.6805 17.9219L10.1436 17.0783L15.7276 13.5248L15.8256 13.5076C16.8089 13.3352 17.5856 13.277 18.1729 13.3583C18.7701 13.441 19.2645 13.6851 19.5095 14.1941C19.7323 14.6569 19.6809 15.2143 19.5514 15.7545C19.4177 16.3121 19.1704 16.9661 18.8748 17.6893L18.8268 17.8067L13.2479 22.3713L10.1191 25.5001H2.41202V24.5001H9.70491L12.5761 21.6289L17.9969 17.1937C18.2682 16.5243 18.4711 15.9712 18.5789 15.5213C18.6972 15.028 18.6738 14.7636 18.6084 14.6278C18.5653 14.5382 18.4554 14.4069 18.0358 14.3488C17.621 14.2914 16.9982 14.3227 16.0959 14.4758Z" fill="#536FAE" stroke="#536FAE" stroke-width="0.6"/>
<path fill-rule="evenodd" clip-rule="evenodd" d="M10.912 4H28.412V5H11.912V16H10.912V4ZM28.412 18H18.6241V17H28.412V18Z" fill="#536FAE" stroke="#536FAE" stroke-width="0.5"/>
<path d="M24.3472 13.8936C24.3516 13.8877 24.356 13.8818 24.3604 13.8758C24.3134 13.9495 24.2643 14.0204 24.2133 14.0884C23.7272 14.7365 23.0863 15.1 22.412 15.1C21.7377 15.1 21.0967 14.7365 20.6107 14.0884C20.5597 14.0204 20.5106 13.9495 20.4636 13.8758C20.468 13.8818 20.4724 13.8877 20.4768 13.8936C20.947 14.5205 21.6271 14.9456 22.412 14.9456C23.1969 14.9456 23.877 14.5205 24.3472 13.8936ZM24.3604 9.12417C24.356 9.11823 24.3516 9.11231 24.3472 9.1064C23.877 8.47948 23.1969 8.05435 22.412 8.05435C21.6271 8.05435 20.947 8.47948 20.4768 9.1064C20.4724 9.1123 20.468 9.11823 20.4636 9.12417C20.5106 9.0505 20.5597 8.97957 20.6107 8.91157C21.0967 8.26349 21.7377 7.9 22.412 7.9C23.0863 7.9 23.7272 8.26349 24.2133 8.91157C24.2643 8.97958 24.3134 9.0505 24.3604 9.12417Z" fill="#536FAE" stroke="#536FAE" stroke-width="0.8"/>
<path d="M15.912 10.75C15.912 11.4404 15.3523 12 14.662 12C13.9716 12 13.412 11.4404 13.412 10.75C13.412 10.0596 13.9716 9.5 14.662 9.5C15.3523 9.5 15.912 10.0596 15.912 10.75Z" fill="#536FAE"/>
</svg>
