<svg width="30" height="30" viewBox="0 0 30 30" fill="none" xmlns="http://www.w3.org/2000/svg">
<path d="M11.25 12.5C11.25 12.9973 11.0525 13.4742 10.7008 13.8258C10.3492 14.1775 9.87228 14.375 9.375 14.375C8.87772 14.375 8.4008 14.1775 8.04917 13.8258C7.69754 13.4742 7.5 12.9973 7.5 12.5C7.5 12.0027 7.69754 11.5258 8.04917 11.1742C8.4008 10.8225 8.87772 10.625 9.375 10.625C9.87228 10.625 10.3492 10.8225 10.7008 11.1742C11.0525 11.5258 11.25 12.0027 11.25 12.5ZM14.0625 14.375C14.4769 14.375 14.8743 14.2104 15.1674 13.9174C15.4604 13.6243 15.625 13.2269 15.625 12.8125C15.625 12.3981 15.4604 12.0007 15.1674 11.7076C14.8743 11.4146 14.4769 11.25 14.0625 11.25C13.6481 11.25 13.2507 11.4146 12.9576 11.7076C12.6646 12.0007 12.5 12.3981 12.5 12.8125C12.5 13.2269 12.6646 13.6243 12.9576 13.9174C13.2507 14.2104 13.6481 14.375 14.0625 14.375ZM18.125 13.2812C18.125 12.85 18.475 12.5 18.9062 12.5H22.9687C23.1759 12.5 23.3747 12.5823 23.5212 12.7288C23.6677 12.8753 23.75 13.074 23.75 13.2812C23.75 13.4885 23.6677 13.6872 23.5212 13.8337C23.3747 13.9802 23.1759 14.0625 22.9687 14.0625H18.9062C18.475 14.0625 18.125 13.7125 18.125 13.2812ZM18.9062 15.9375C18.699 15.9375 18.5003 16.0198 18.3538 16.1663C18.2073 16.3128 18.125 16.5115 18.125 16.7188C18.125 16.926 18.2073 17.1247 18.3538 17.2712C18.5003 17.4177 18.699 17.5 18.9062 17.5H22.9687C23.1759 17.5 23.3747 17.4177 23.5212 17.2712C23.6677 17.1247 23.75 16.926 23.75 16.7188C23.75 16.5115 23.6677 16.3128 23.5212 16.1663C23.3747 16.0198 23.1759 15.9375 22.9687 15.9375H18.9062ZM6.25 16.5625C6.25 16.3139 6.34877 16.0754 6.52459 15.8996C6.7004 15.7238 6.93886 15.625 7.1875 15.625H11.5625C11.8111 15.625 12.0496 15.7238 12.2254 15.8996C12.4012 16.0754 12.5 16.3139 12.5 16.5625V17.5C12.5 17.5 12.5 19.6875 9.375 19.6875C6.25 19.6875 6.25 17.5 6.25 17.5V16.5625ZM13.6669 18.1313C13.6162 18.3438 13.5452 18.551 13.455 18.75H14.375C14.8723 18.75 15.3492 18.5525 15.7008 18.2008C16.0525 17.8492 16.25 17.3723 16.25 16.875V16.5625C16.25 16.3139 16.1512 16.0754 15.9754 15.8996C15.7996 15.7238 15.5611 15.625 15.3125 15.625H13.5394C13.6744 15.9094 13.75 16.2269 13.75 16.5625V17.535C13.7488 17.597 13.7446 17.659 13.7375 17.7206C13.7231 17.8589 13.6995 17.9961 13.6669 18.1313ZM2.5 8.90625C2.5 7.87025 2.91155 6.87668 3.64411 6.14411C4.37668 5.41155 5.37025 5 6.40625 5H23.5937C24.6297 5 25.6233 5.41155 26.3559 6.14411C27.0884 6.87668 27.5 7.87025 27.5 8.90625V21.0938C27.5 22.1298 27.0884 23.1233 26.3559 23.8559C25.6233 24.5884 24.6297 25 23.5937 25H6.40625C5.37025 25 4.37668 24.5884 3.64411 23.8559C2.91155 23.1233 2.5 22.1298 2.5 21.0938V8.90625ZM6.40625 6.5625C5.78465 6.5625 5.18851 6.80943 4.74897 7.24897C4.30943 7.68851 4.0625 8.28465 4.0625 8.90625V21.0938C4.0625 21.7154 4.30943 22.3115 4.74897 22.751C5.18851 23.1906 5.78465 23.4375 6.40625 23.4375H23.5937C24.2153 23.4375 24.8115 23.1906 25.251 22.751C25.6906 22.3115 25.9375 21.7154 25.9375 21.0938V8.90625C25.9375 8.28465 25.6906 7.68851 25.251 7.24897C24.8115 6.80943 24.2153 6.5625 23.5937 6.5625H6.40625Z" fill="#536FAE"/>
</svg>
