<svg width="30" height="30" viewBox="0 0 30 30" fill="none" xmlns="http://www.w3.org/2000/svg">
<path d="M27.1875 6.5625H22.5V4.92188C22.5 4.79297 22.3945 4.6875 22.2656 4.6875H20.625C20.4961 4.6875 20.3906 4.79297 20.3906 4.92188V6.5625H16.0547V4.92188C16.0547 4.79297 15.9492 4.6875 15.8203 4.6875H14.1797C14.0508 4.6875 13.9453 4.79297 13.9453 4.92188V6.5625H9.60938V4.92188C9.60938 4.79297 9.50391 4.6875 9.375 4.6875H7.73438C7.60547 4.6875 7.5 4.79297 7.5 4.92188V6.5625H2.8125C2.29395 6.5625 1.875 6.98145 1.875 7.5V24.375C1.875 24.8936 2.29395 25.3125 2.8125 25.3125H27.1875C27.7061 25.3125 28.125 24.8936 28.125 24.375V7.5C28.125 6.98145 27.7061 6.5625 27.1875 6.5625ZM26.0156 23.2031H3.98438V8.67188H7.5V10.3125C7.5 10.4414 7.60547 10.5469 7.73438 10.5469H9.375C9.50391 10.5469 9.60938 10.4414 9.60938 10.3125V8.67188H13.9453V10.3125C13.9453 10.4414 14.0508 10.5469 14.1797 10.5469H15.8203C15.9492 10.5469 16.0547 10.4414 16.0547 10.3125V8.67188H20.3906V10.3125C20.3906 10.4414 20.4961 10.5469 20.625 10.5469H22.2656C22.3945 10.5469 22.5 10.4414 22.5 10.3125V8.67188H26.0156V23.2031ZM12.1875 14.5312H6.79688C6.66797 14.5312 6.5625 14.6367 6.5625 14.7656V16.1719C6.5625 16.3008 6.66797 16.4062 6.79688 16.4062H12.1875C12.3164 16.4062 12.4219 16.3008 12.4219 16.1719V14.7656C12.4219 14.6367 12.3164 14.5312 12.1875 14.5312ZM12.1875 18.5156H6.79688C6.66797 18.5156 6.5625 18.6211 6.5625 18.75V20.1562C6.5625 20.2852 6.66797 20.3906 6.79688 20.3906H12.1875C12.3164 20.3906 12.4219 20.2852 12.4219 20.1562V18.75C12.4219 18.6211 12.3164 18.5156 12.1875 18.5156ZM21.2168 13.3184L18.1816 17.5283L16.6348 15.3867C16.5469 15.2637 16.4063 15.1934 16.2568 15.1934H14.6484C14.458 15.1934 14.3467 15.4102 14.458 15.5654L17.8008 20.2002C17.8439 20.2601 17.9007 20.3089 17.9664 20.3425C18.0321 20.3762 18.1049 20.3937 18.1787 20.3937C18.2525 20.3937 18.3253 20.3762 18.391 20.3425C18.4567 20.3089 18.5135 20.2601 18.5566 20.2002L23.3906 13.5C23.502 13.3447 23.3906 13.1279 23.2002 13.1279H21.5918C21.4453 13.125 21.3047 13.1982 21.2168 13.3184Z" fill="#536FAE"/>
</svg>
