<svg width="30" height="30" viewBox="0 0 30 30" fill="none" xmlns="http://www.w3.org/2000/svg">
<path d="M2.5 8.125H27.5V23.125H2.5V8.125Z" stroke="#3C5595" stroke-width="2.5" stroke-linejoin="round"/>
<path d="M2.5 13.125C3.82608 13.125 5.09785 12.5982 6.03553 11.6605C6.97322 10.7229 7.5 9.45108 7.5 8.125H2.5V13.125ZM2.5 18.125C3.82608 18.125 5.09785 18.6518 6.03553 19.5895C6.97322 20.5271 7.5 21.7989 7.5 23.125H2.5V18.125ZM27.5 18.125V23.125H22.5C22.5 21.7989 23.0268 20.5271 23.9645 19.5895C24.9021 18.6518 26.1739 18.125 27.5 18.125ZM27.5 13.125C26.1739 13.125 24.9021 12.5982 23.9645 11.6605C23.0268 10.7229 22.5 9.45108 22.5 8.125H27.5V13.125Z" stroke="#3C5595" stroke-width="2.5" stroke-linecap="round" stroke-linejoin="round"/>
<path d="M15 19.375C16.7256 19.375 18.125 17.6962 18.125 15.625C18.125 13.5538 16.7256 11.875 15 11.875C13.2744 11.875 11.875 13.5538 11.875 15.625C11.875 17.6962 13.2744 19.375 15 19.375Z" stroke="#3C5595" stroke-width="2.5" stroke-linejoin="round"/>
</svg>
