<svg width="30" height="30" viewBox="0 0 30 30" fill="none" xmlns="http://www.w3.org/2000/svg">
<path d="M14.1544 18.8962C15.0169 19.2375 15.8044 19.6913 16.5132 20.2556C17.2219 20.8181 17.8275 21.4744 18.3319 22.2169C19.3606 23.7151 19.9146 25.4882 19.9219 27.3056V28.125H18.2813V27.3038C18.2848 26.334 18.0951 25.3733 17.7233 24.4777C17.3514 23.5821 16.8049 22.7696 16.1157 22.0875C15.4391 21.4205 14.6435 20.8863 13.77 20.5125C12.8623 20.1236 11.8851 19.9227 10.8975 19.9219C9.92782 19.9184 8.96712 20.1081 8.07152 20.4799C7.17592 20.8517 6.36336 21.3982 5.68128 22.0875C5.01451 22.7642 4.48032 23.5598 4.10628 24.4331C3.72003 25.3219 3.52503 26.28 3.51566 27.3038V28.125H1.87503V27.3038C1.87023 25.4851 2.42537 23.7091 3.46503 22.2169C4.50058 20.7229 5.95462 19.5682 7.64441 18.8981C7.26053 18.6344 6.91097 18.3239 6.60378 17.9738C6.30024 17.6291 6.03785 17.2503 5.82191 16.845C5.60681 16.44 5.44305 16.0099 5.33441 15.5644C5.22362 15.1106 5.16387 14.6458 5.15628 14.1788C5.15628 13.3856 5.30628 12.6413 5.60628 11.9494C6.19289 10.5786 7.28461 9.4862 8.65503 8.89875C9.36203 8.59778 10.1222 8.44156 10.8906 8.4393C11.659 8.43705 12.42 8.58881 13.1288 8.88562C14.4999 9.47268 15.5924 10.5651 16.1794 11.9363C16.6649 13.0779 16.7682 14.346 16.4738 15.5512C16.3613 15.9956 16.1963 16.4231 15.975 16.8337C15.7552 17.2402 15.4931 17.6223 15.1932 17.9738C14.8932 18.3244 14.5463 18.63 14.1544 18.8962ZM10.8975 18.2812C11.4619 18.2812 11.9925 18.1744 12.4875 17.9625C13.469 17.5455 14.2501 16.7637 14.6663 15.7819C14.8894 15.2775 15 14.7431 15 14.1806C15.0024 13.6437 14.897 13.1118 14.6899 12.6164C14.4827 12.121 14.1782 11.6723 13.7944 11.2969C13.4147 10.9267 12.9722 10.627 12.4875 10.4119C11.9874 10.1885 11.4453 10.0747 10.8975 10.0781C10.335 10.0781 9.80441 10.185 9.30941 10.3969C8.32256 10.8178 7.53656 11.6038 7.11566 12.5906C6.90378 13.0856 6.79691 13.6163 6.79691 14.1806C6.79691 14.7431 6.90378 15.2737 7.11566 15.7687C7.33128 16.2638 7.62191 16.7006 7.98941 17.0756C8.36985 17.4601 8.8232 17.7647 9.32288 17.9718C9.82257 18.1788 10.3585 18.284 10.8994 18.2812H10.8975ZM28.125 1.875V15H24.8438L19.9219 19.9219V15H18.2813V13.3594H21.5625V15.9619L24.165 13.3594H26.4844V3.51562H10.0782V6.46313C9.80315 6.49787 9.52927 6.54102 9.25691 6.5925C8.97762 6.64552 8.70347 6.72269 8.43753 6.82312V1.875H28.125Z" fill="#536FAE"/>
</svg>
