<svg width="30" height="30" viewBox="0 0 30 30" fill="none" xmlns="http://www.w3.org/2000/svg">
<path d="M15 4.5C17.387 4.5 19.6762 5.44821 21.364 7.13604C23.0518 8.82387 24 11.1131 24 13.5C24 15.8869 23.0518 18.1761 21.364 19.864C19.6762 21.5518 17.387 22.5 15 22.5C12.6131 22.5 10.3239 21.5518 8.63608 19.864C6.94825 18.1761 6.00004 15.8869 6.00004 13.5C6.00004 11.1131 6.94825 8.82387 8.63608 7.13604C10.3239 5.44821 12.6131 4.5 15 4.5ZM15 21C15.369 21 16.1055 20.6625 16.8405 19.1925C17.208 18.4575 17.5125 17.5425 17.718 16.5H12.282C12.4535 17.4325 12.7486 18.338 13.1595 19.1925C13.8945 20.6625 14.631 21 15 21ZM12.0675 15H17.9325C18.0242 14.0021 18.0242 12.9979 17.9325 12H12.0675C11.9759 12.9979 11.9759 14.0021 12.0675 15ZM17.871 20.43C19.6627 19.6852 21.0975 18.2772 21.876 16.5H19.2435C18.9705 18.0495 18.4905 19.4025 17.871 20.43ZM19.4385 15H22.35C22.5512 14.0101 22.5512 12.9899 22.35 12H19.4385C19.5223 12.9982 19.5223 14.0018 19.4385 15ZM17.871 6.57C18.4905 7.5975 18.9705 8.952 19.2435 10.5H21.876C21.0975 8.72277 19.6627 7.31484 17.871 6.57ZM16.8405 7.8075C16.1055 6.3375 15.369 6 15 6C14.631 6 13.8945 6.3375 13.1595 7.8075C12.749 8.66214 12.4539 9.56757 12.282 10.5H17.718C17.5461 9.56759 17.251 8.66216 16.8405 7.8075ZM12.1305 6.5685C10.3375 7.31305 8.9015 8.72164 8.12254 10.5H10.755C11.028 8.952 11.508 7.5975 12.1275 6.57L12.1305 6.5685ZM7.50004 13.5C7.50004 14.013 7.55104 14.5155 7.65004 15H10.5615C10.4779 14.0017 10.4779 12.9983 10.5615 12H7.65004C7.55104 12.4845 7.50004 12.987 7.50004 13.5ZM8.12404 16.5C8.9026 18.2772 10.3374 19.6852 12.129 20.43C11.5095 19.4025 11.0295 18.0495 10.7565 16.5H8.12404ZM5.25004 19.5H6.38254C6.75754 20.04 7.18354 20.541 7.65154 21H5.83654L4.71154 25.5H25.29L24.165 21H22.3485C22.8165 20.541 23.2425 20.04 23.6175 19.5H24.75C24.9173 19.5 25.0798 19.556 25.2116 19.659C25.3435 19.762 25.437 19.9062 25.4775 20.0685L26.9775 26.0685C27.0051 26.179 27.0071 26.2944 26.9835 26.4058C26.9598 26.5173 26.911 26.6219 26.8409 26.7116C26.7708 26.8014 26.6811 26.8741 26.5788 26.924C26.4764 26.974 26.364 27 26.25 27H3.75004C3.63611 27 3.52369 26.974 3.42131 26.924C3.31893 26.8741 3.22928 26.8014 3.15915 26.7116C3.08903 26.6219 3.04028 26.5173 3.01661 26.4058C2.99294 26.2944 2.99497 26.179 3.02254 26.0685L4.52254 20.0685C4.56302 19.9062 4.65662 19.762 4.78844 19.659C4.92026 19.556 5.08274 19.5 5.25004 19.5Z" fill="#536FAE"/>
</svg>
