<?xml version="1.0" standalone="no"?>
<!DOCTYPE svg PUBLIC "-//W3C//DTD SVG 20010904//EN"
 "http://www.w3.org/TR/2001/REC-SVG-20010904/DTD/svg10.dtd">
<svg version="1.0" xmlns="http://www.w3.org/2000/svg"
 width="215.000000pt" height="215.000000pt" viewBox="0 0 215.000000 215.000000"
 preserveAspectRatio="xMidYMid meet">

<g transform="translate(0.000000,215.000000) scale(0.100000,-0.100000)"
fill="#000000" stroke="none">
<path d="M856 1644 c-9 -8 -16 -22 -16 -29 0 -13 26 -45 36 -45 19 0 44 24 44
43 0 43 -35 60 -64 31z"/>
<path d="M1467 1612 c-13 -15 -17 -39 -17 -115 l0 -97 100 0 100 0 0 93 c0
125 -8 137 -99 137 -53 0 -72 -4 -84 -18z"/>
<path d="M1257 1564 c-4 -4 -7 -16 -7 -26 0 -13 7 -18 26 -18 21 0 25 4 22 22
-3 23 -27 35 -41 22z"/>
<path d="M483 1503 c-9 -3 -13 -30 -13 -84 l0 -79 125 0 125 0 0 73 c0 43 -5
78 -12 85 -12 12 -198 16 -225 5z"/>
<path d="M973 1423 c-8 -3 -13 -25 -13 -59 l0 -54 100 0 100 0 0 44 c0 64 -16
76 -103 75 -40 0 -78 -3 -84 -6z"/>
<path d="M1450 1110 l0 -260 100 0 100 0 0 260 0 260 -100 0 -100 0 0 -260z"/>
<path d="M762 1328 c-8 -8 -12 -43 -12 -100 l0 -88 85 0 86 0 -3 98 -3 97 -70
3 c-46 2 -74 -1 -83 -10z"/>
<path d="M470 1050 l0 -260 125 0 125 0 0 260 0 260 -125 0 -125 0 0 -260z"/>
<path d="M960 1035 l0 -245 100 0 100 0 0 245 0 245 -100 0 -100 0 0 -245z"/>
<path d="M1197 1243 c-4 -3 -7 -28 -7 -55 l0 -48 115 0 115 0 0 39 c0 71 -1
71 -114 71 -57 0 -106 -3 -109 -7z"/>
<path d="M750 995 l0 -115 85 0 85 0 0 115 0 115 -85 0 -85 0 0 -115z"/>
<path d="M1190 950 l0 -160 115 0 115 0 0 160 0 160 -115 0 -115 0 0 -160z"/>
<path d="M750 763 c0 -49 4 -94 9 -101 5 -9 29 -12 82 -10 l74 3 3 98 3 97
-86 0 -85 0 0 -87z"/>
<path d="M1450 754 c0 -97 6 -104 95 -104 96 0 105 9 105 101 l0 69 -100 0
-100 0 0 -66z"/>
<path d="M470 711 c0 -35 4 -51 16 -55 30 -11 209 -7 222 6 7 7 12 31 12 55
l0 43 -125 0 -125 0 0 -49z"/>
<path d="M962 708 l3 -53 89 -3 c101 -3 106 0 106 66 l0 42 -101 0 -100 0 3
-52z"/>
<path d="M1192 708 l3 -53 104 -3 c118 -3 121 -1 121 66 l0 42 -116 0 -115 0
3 -52z"/>
<path d="M420 516 c-6 -8 -10 -25 -8 -38 l3 -23 634 -3 c460 -1 638 1 647 9
18 15 18 34 -2 53 -14 14 -85 16 -638 16 -532 0 -625 -2 -636 -14z"/>
</g>
</svg>
