<svg width="30" height="30" viewBox="0 0 30 30" fill="none" xmlns="http://www.w3.org/2000/svg">
<path d="M26.25 10C25.9975 10 20.1875 10.0363 15 12.51C9.8125 10.0363 4.0025 10 3.75 10C3.41848 10 3.10054 10.1317 2.86612 10.3661C2.6317 10.6005 2.5 10.9185 2.5 11.25V23.6037C2.5 23.7715 2.53376 23.9375 2.59926 24.0919C2.66475 24.2463 2.76066 24.3859 2.88125 24.5025C3.125 24.7375 3.48125 24.8837 3.7925 24.8525L3.95125 24.8513C4.805 24.8513 9.32125 24.9738 14.4712 27.3825C14.4913 27.3925 14.5138 27.3888 14.5337 27.3962C14.6825 27.4575 14.8387 27.5 15 27.5C15.1613 27.5 15.3175 27.4575 15.4675 27.3962C15.4875 27.3888 15.51 27.3925 15.53 27.3825C20.68 24.9725 25.1963 24.8513 26.05 24.8513L26.2087 24.8525C26.5062 24.8837 26.875 24.7375 27.12 24.5025C27.3625 24.2662 27.5 23.9412 27.5 23.6037V11.25C27.5 10.9185 27.3683 10.6005 27.1339 10.3661C26.8995 10.1317 26.5815 10 26.25 10ZM5 12.5612C6.85625 12.7 10.4763 13.1613 13.75 14.6763V24.3538C10 22.885 6.7625 22.4862 5 22.3837V12.5612ZM25 22.3837C23.2375 22.4862 20 22.885 16.25 24.3538V14.6763C19.5238 13.1613 23.1437 12.7 25 12.5612V22.3837Z" fill="#3C5595"/>
<path d="M15 10C17.0711 10 18.75 8.32107 18.75 6.25C18.75 4.17893 17.0711 2.5 15 2.5C12.9289 2.5 11.25 4.17893 11.25 6.25C11.25 8.32107 12.9289 10 15 10Z" fill="#3C5595"/>
</svg>
