<svg width="28" height="28" viewBox="0 0 28 28" fill="none" xmlns="http://www.w3.org/2000/svg">
<path d="M14 25.6667C15.2833 25.6667 16.3333 24.6167 16.3333 23.3334H11.6666C11.6666 23.9522 11.9125 24.5457 12.35 24.9833C12.7876 25.4209 13.3811 25.6667 14 25.6667ZM21 18.6667V12.8334C21 9.25169 19.0866 6.25335 15.75 5.46002V4.66669C15.75 3.69835 14.9683 2.91669 14 2.91669C13.0316 2.91669 12.25 3.69835 12.25 4.66669V5.46002C8.90163 6.25335 6.99996 9.24002 6.99996 12.8334V18.6667L4.66663 21V22.1667H23.3333V21L21 18.6667Z" fill="#536FAE"/>
</svg>
