<svg width="30" height="30" viewBox="0 0 30 30" fill="none" xmlns="http://www.w3.org/2000/svg">
<path d="M4.6875 5.625C3.14531 5.625 1.875 6.89531 1.875 8.4375V21.5625C1.875 23.1047 3.14531 24.375 4.6875 24.375H25.3125C26.8547 24.375 28.125 23.1047 28.125 21.5625V8.4375C28.125 6.89531 26.8547 5.625 25.3125 5.625H4.6875ZM4.6875 7.5H25.3125C25.8431 7.5 26.25 7.90688 26.25 8.4375V21.5625C26.25 22.0931 25.8431 22.5 25.3125 22.5H4.6875C4.15688 22.5 3.75 22.0931 3.75 21.5625V8.4375C3.75 7.90688 4.15688 7.5 4.6875 7.5ZM10.3125 9.375C8.25 9.375 6.5625 11.0625 6.5625 13.125C6.5625 14.1684 7.00969 15.1097 7.70531 15.7913C7.06718 16.2219 6.54403 16.802 6.18144 17.4811C5.81885 18.1602 5.62782 18.9177 5.625 19.6875H7.5C7.5 18.1237 8.74875 16.875 10.3125 16.875C11.8763 16.875 13.125 18.1237 13.125 19.6875H15C14.9972 18.9177 14.8062 18.1602 14.4436 17.4811C14.081 16.802 13.5578 16.2219 12.9197 15.7913C13.6153 15.1097 14.0625 14.1694 14.0625 13.125C14.0625 11.0625 12.375 9.375 10.3125 9.375ZM16.875 10.3125V12.1875H24.375V10.3125H16.875ZM10.3125 11.25C11.3597 11.25 12.1875 12.0778 12.1875 13.125C12.1875 14.1722 11.3597 15 10.3125 15C9.26531 15 8.4375 14.1722 8.4375 13.125C8.4375 12.0778 9.26531 11.25 10.3125 11.25ZM16.875 14.0625V15.9375H24.375V14.0625H16.875ZM16.875 17.8125V19.6875H21.5625V17.8125H16.875Z" fill="#536FAE"/>
</svg>
