<svg width="30" height="30" viewBox="0 0 30 30" fill="none" xmlns="http://www.w3.org/2000/svg">
<path d="M22.0393 11.9224C22.0393 11.3961 21.9508 5.64438 22.0393 5.08111C22.1278 4.51783 23.1862 7.01125 22.9713 8.76486C22.8644 10.1781 22.0393 12.4486 22.0393 11.9224Z" fill="#536FAE" stroke="#536FAE" stroke-width="0.5"/>
<path d="M25.0787 12.8891C25.0787 12.1373 24.9017 3.92055 25.0787 3.11587C25.2557 2.31119 27.3723 5.87321 26.9425 8.37838C26.7289 10.3973 25.0787 13.6409 25.0787 12.8891Z" fill="#536FAE" stroke="#536FAE" stroke-width="0.5"/>
<path d="M19 9C19 11.7614 16.7614 14 14 14C11.2386 14 9 11.7614 9 9C9 6.23858 11.2386 4 14 4C16.7614 4 19 6.23858 19 9ZM10.6187 9C10.6187 10.8674 12.1326 12.3813 14 12.3813C15.8674 12.3813 17.3813 10.8674 17.3813 9C17.3813 7.13257 15.8674 5.61871 14 5.61871C12.1326 5.61871 10.6187 7.13257 10.6187 9Z" fill="#536FAE"/>
<path d="M5 27V21C5.96332 19.2492 6.54497 18.5037 8 18H20.5C22.0052 18.6382 22.6432 19.3332 23.5 21V27" stroke="#536FAE" stroke-width="1.8"/>
</svg>
