<svg width="30" height="30" viewBox="0 0 30 30" fill="none" xmlns="http://www.w3.org/2000/svg">
<path d="M11.8976 27.5C11.2851 25.5025 10.3613 24.0138 9.12572 23.0331C7.2726 21.5625 4.32822 22.4769 3.24072 20.9594C2.15322 19.4419 4.0026 16.6519 4.65135 15.0056C5.30072 13.3594 2.16385 12.7775 2.5301 12.31C2.77385 11.9981 4.35947 11.0994 7.28572 9.6125C8.11697 4.87063 11.1876 2.5 16.4989 2.5C24.4651 2.5 27.5001 9.25375 27.5001 13.55C27.5001 17.8456 23.8251 22.4731 18.5901 23.4713C18.122 24.1525 18.797 25.4962 20.6151 27.5006" stroke="#536FAE" stroke-width="1.8" stroke-linecap="round" stroke-linejoin="round"/>
<path d="M12.1876 9.06254C11.7788 10.6463 11.9001 11.7588 12.5519 12.3988C13.2032 13.0394 14.3132 13.4582 15.8819 13.655C15.5257 15.6988 15.9601 16.6569 17.1838 16.5307C18.4076 16.4044 19.1432 15.8963 19.3901 15.0057C21.3026 15.5432 22.3394 15.0932 22.5001 13.6557C22.7407 11.4994 21.5782 9.78004 21.1013 9.78004C20.6251 9.78004 19.3901 9.72192 19.3901 9.06254C19.3901 8.40317 17.9476 8.03129 16.6457 8.03129C15.3438 8.03129 16.1269 7.15317 14.3394 7.50004C13.1476 7.73129 12.4301 8.25192 12.1876 9.06254V9.06254Z" stroke="#536FAE" stroke-width="1.8" stroke-linejoin="round"/>
<path d="M19.0625 15.9375C18.4269 16.3319 17.555 16.9875 17.1875 17.5C16.2694 18.7812 15.525 19.5606 15.3625 20.38" stroke="#536FAE" stroke-width="1.8" stroke-linecap="round"/>
</svg>
