<svg width="30" height="30" viewBox="0 0 30 30" fill="none" xmlns="http://www.w3.org/2000/svg">
<g clip-path="url(#clip0_136_4771)">
<path d="M7.5 0C6.50544 0 5.55161 0.395088 4.84835 1.09835C4.14509 1.80161 3.75 2.75544 3.75 3.75V5.87437L1.98563 6.81563C1.38578 7.13547 0.884152 7.61235 0.534402 8.19527C0.184651 8.77818 -6.79625e-05 9.44521 1.87573e-08 10.125V26.25C1.87573e-08 27.2446 0.395088 28.1984 1.09835 28.9016C1.80161 29.6049 2.75544 30 3.75 30H26.25C27.2446 30 28.1984 29.6049 28.9016 28.9016C29.6049 28.1984 30 27.2446 30 26.25V10.125C30.0001 9.44521 29.8153 8.77818 29.4656 8.19527C29.1158 7.61235 28.6142 7.13547 28.0144 6.81563L26.25 5.87437V3.75C26.25 2.75544 25.8549 1.80161 25.1516 1.09835C24.4484 0.395088 23.4946 0 22.5 0L7.5 0ZM26.25 8.00063L27.1313 8.46938C27.4315 8.62925 27.6826 8.86778 27.8576 9.15943C28.0327 9.45107 28.1251 9.78485 28.125 10.125V11.6569L26.25 12.7819V8.00063ZM24.375 13.9069L17.3438 18.1256L15 16.7194L12.6562 18.1256L5.625 13.9069V3.75C5.625 3.25272 5.82254 2.77581 6.17417 2.42417C6.52581 2.07254 7.00272 1.875 7.5 1.875H22.5C22.9973 1.875 23.4742 2.07254 23.8258 2.42417C24.1775 2.77581 24.375 3.25272 24.375 3.75V13.9069ZM3.75 12.7819L1.875 11.6569V10.125C1.87523 9.78517 1.96781 9.45179 2.14284 9.1605C2.31788 8.86921 2.56879 8.63097 2.86875 8.47125L3.75 8.00063V12.7819ZM28.125 13.8431V24.5944L19.1663 19.2188L28.125 13.8431ZM28.0594 26.7431C27.9512 27.1401 27.7154 27.4904 27.3884 27.7401C27.0615 27.9898 26.6614 28.1251 26.25 28.125H3.75C3.33833 28.125 2.93811 27.9895 2.6111 27.7394C2.2841 27.4893 2.04848 27.1385 1.94062 26.7413L15 18.9056L28.0594 26.7431ZM1.875 24.5925V13.8431L10.8337 19.2188L1.875 24.5944V24.5925Z" fill="#536FAE"/>
</g>
<defs>
<clipPath id="clip0_136_4771">
<rect width="30" height="30" fill="white"/>
</clipPath>
</defs>
</svg>
