<svg width="30" height="30" viewBox="0 0 30 30" fill="none" xmlns="http://www.w3.org/2000/svg">
<path d="M9 15.75C9 15.5511 9.07902 15.3603 9.21967 15.2197C9.36032 15.079 9.55109 15 9.75 15C9.94891 15 10.1397 15.079 10.2803 15.2197C10.421 15.3603 10.5 15.5511 10.5 15.75C10.5 15.9489 10.421 16.1397 10.2803 16.2803C10.1397 16.421 9.94891 16.5 9.75 16.5C9.55109 16.5 9.36032 16.421 9.21967 16.2803C9.07902 16.1397 9 15.9489 9 15.75ZM9.75 18C9.55109 18 9.36032 18.079 9.21967 18.2197C9.07902 18.3603 9 18.5511 9 18.75C9 18.9489 9.07902 19.1397 9.21967 19.2803C9.36032 19.421 9.55109 19.5 9.75 19.5C9.94891 19.5 10.1397 19.421 10.2803 19.2803C10.421 19.1397 10.5 18.9489 10.5 18.75C10.5 18.5511 10.421 18.3603 10.2803 18.2197C10.1397 18.079 9.94891 18 9.75 18ZM9 21.75C9 21.5511 9.07902 21.3603 9.21967 21.2197C9.36032 21.079 9.55109 21 9.75 21C9.94891 21 10.1397 21.079 10.2803 21.2197C10.421 21.3603 10.5 21.5511 10.5 21.75C10.5 21.9489 10.421 22.1397 10.2803 22.2803C10.1397 22.421 9.94891 22.5 9.75 22.5C9.55109 22.5 9.36032 22.421 9.21967 22.2803C9.07902 22.1397 9 21.9489 9 21.75ZM12.75 15C12.5511 15 12.3603 15.079 12.2197 15.2197C12.079 15.3603 12 15.5511 12 15.75C12 15.9489 12.079 16.1397 12.2197 16.2803C12.3603 16.421 12.5511 16.5 12.75 16.5H20.25C20.4489 16.5 20.6397 16.421 20.7803 16.2803C20.921 16.1397 21 15.9489 21 15.75C21 15.5511 20.921 15.3603 20.7803 15.2197C20.6397 15.079 20.4489 15 20.25 15H12.75ZM12 18.75C12 18.5511 12.079 18.3603 12.2197 18.2197C12.3603 18.079 12.5511 18 12.75 18H20.25C20.4489 18 20.6397 18.079 20.7803 18.2197C20.921 18.3603 21 18.5511 21 18.75C21 18.9489 20.921 19.1397 20.7803 19.2803C20.6397 19.421 20.4489 19.5 20.25 19.5H12.75C12.5511 19.5 12.3603 19.421 12.2197 19.2803C12.079 19.1397 12 18.9489 12 18.75ZM12.75 21C12.5511 21 12.3603 21.079 12.2197 21.2197C12.079 21.3603 12 21.5511 12 21.75C12 21.9489 12.079 22.1397 12.2197 22.2803C12.3603 22.421 12.5511 22.5 12.75 22.5H20.25C20.4489 22.5 20.6397 22.421 20.7803 22.2803C20.921 22.1397 21 21.9489 21 21.75C21 21.5511 20.921 21.3603 20.7803 21.2197C20.6397 21.079 20.4489 21 20.25 21H12.75ZM9 3C8.20435 3 7.44129 3.31607 6.87868 3.87868C6.31607 4.44129 6 5.20435 6 6V24C6 24.7956 6.31607 25.5587 6.87868 26.1213C7.44129 26.6839 8.20435 27 9 27H21C21.7956 27 22.5587 26.6839 23.1213 26.1213C23.6839 25.5587 24 24.7956 24 24V11.121C23.9995 10.5245 23.7621 9.95255 23.34 9.531L17.469 3.6585C17.0472 3.23697 16.4753 3.00013 15.879 3H9ZM7.5 6C7.5 5.60218 7.65804 5.22064 7.93934 4.93934C8.22064 4.65804 8.60218 4.5 9 4.5H15V9.75C15 10.3467 15.2371 10.919 15.659 11.341C16.081 11.7629 16.6533 12 17.25 12H22.5V24C22.5 24.3978 22.342 24.7794 22.0607 25.0607C21.7794 25.342 21.3978 25.5 21 25.5H9C8.60218 25.5 8.22064 25.342 7.93934 25.0607C7.65804 24.7794 7.5 24.3978 7.5 24V6ZM22.1895 10.5H17.25C17.0511 10.5 16.8603 10.421 16.7197 10.2803C16.579 10.1397 16.5 9.94891 16.5 9.75V4.8105L22.1895 10.5Z" fill="#536FAE"/>
</svg>
