<?xml version="1.0" standalone="no"?>
<!DOCTYPE svg PUBLIC "-//W3C//DTD SVG 20010904//EN"
 "http://www.w3.org/TR/2001/REC-SVG-20010904/DTD/svg10.dtd">
<svg version="1.0" xmlns="http://www.w3.org/2000/svg"
 width="512.000000pt" height="512.000000pt" viewBox="0 0 512.000000 512.000000"
 preserveAspectRatio="xMidYMid meet">

<g transform="translate(0.000000,512.000000) scale(0.100000,-0.100000)"
fill="#000000" stroke="none">
<path d="M1840 5114 c-368 -27 -741 -167 -1035 -388 -428 -321 -696 -769 -781
-1307 -22 -141 -22 -437 0 -578 142 -897 825 -1562 1725 -1681 121 -16 377
-13 510 5 256 36 538 134 736 255 36 22 69 40 73 40 3 0 319 -313 702 -695
761 -760 730 -733 875 -758 267 -46 511 201 466 470 -24 140 -3 116 -760 875
l-695 698 23 37 c51 86 162 324 191 413 111 335 132 733 55 1065 -89 385 -282
727 -559 992 -307 294 -660 470 -1076 538 -97 15 -351 26 -450 19z m415 -170
c815 -121 1447 -769 1550 -1589 44 -348 -14 -695 -169 -1020 -29 -60 -73 -141
-98 -180 -48 -76 -169 -222 -267 -323 -34 -35 -64 -74 -67 -88 -13 -49 50
-103 99 -85 22 9 139 126 215 216 l42 50 680 -680 c732 -732 721 -719 722
-824 0 -75 -18 -125 -67 -179 -53 -58 -108 -84 -185 -85 -114 -1 -74 -36 -850
738 -393 392 -726 720 -740 729 -38 25 -56 20 -149 -38 -737 -462 -1674 -356
-2283 256 -344 347 -529 796 -529 1288 0 499 183 942 536 1296 413 414 982
603 1560 518z"/>
<path d="M1835 4679 c-261 -28 -522 -125 -736 -274 -121 -85 -310 -278 -391
-400 -124 -187 -206 -388 -245 -597 -27 -143 -24 -430 6 -568 94 -440 346
-803 716 -1030 243 -149 514 -223 815 -222 261 1 486 56 710 173 511 268 830
796 830 1374 0 563 -296 1071 -787 1351 -102 58 -151 57 -174 -3 -18 -48 3
-74 111 -137 399 -236 649 -628 692 -1087 37 -402 -107 -808 -391 -1097 -96
-99 -171 -158 -281 -225 -381 -231 -880 -262 -1283 -80 -687 310 -1007 1088
-736 1788 169 437 547 755 1024 862 62 13 129 18 300 19 121 1 226 2 232 3 7
0 19 14 28 31 13 26 14 34 1 64 -17 40 -23 43 -146 56 -109 11 -181 11 -295
-1z"/>
</g>
</svg>
