<svg width="26" height="20" viewBox="0 0 26 20" fill="none" xmlns="http://www.w3.org/2000/svg">
<path d="M9.25 7.5C9.25 7.99728 9.05245 8.47419 8.70082 8.82583C8.34919 9.17746 7.87228 9.375 7.375 9.375C6.87772 9.375 6.4008 9.17746 6.04917 8.82583C5.69754 8.47419 5.5 7.99728 5.5 7.5C5.5 7.00272 5.69754 6.52581 6.04917 6.17417C6.4008 5.82254 6.87772 5.625 7.375 5.625C7.87228 5.625 8.34919 5.82254 8.70082 6.17417C9.05245 6.52581 9.25 7.00272 9.25 7.5ZM12.0625 9.375C12.4769 9.375 12.8743 9.21038 13.1674 8.91735C13.4604 8.62433 13.625 8.2269 13.625 7.8125C13.625 7.3981 13.4604 7.00067 13.1674 6.70765C12.8743 6.41462 12.4769 6.25 12.0625 6.25C11.6481 6.25 11.2507 6.41462 10.9576 6.70765C10.6646 7.00067 10.5 7.3981 10.5 7.8125C10.5 8.2269 10.6646 8.62433 10.9576 8.91735C11.2507 9.21038 11.6481 9.375 12.0625 9.375ZM16.125 8.28125C16.125 7.85 16.475 7.5 16.9062 7.5H20.9687C21.1759 7.5 21.3747 7.58231 21.5212 7.72882C21.6677 7.87534 21.75 8.07405 21.75 8.28125C21.75 8.48845 21.6677 8.68717 21.5212 8.83368C21.3747 8.98019 21.1759 9.0625 20.9687 9.0625H16.9062C16.475 9.0625 16.125 8.7125 16.125 8.28125ZM16.9062 10.9375C16.699 10.9375 16.5003 11.0198 16.3538 11.1663C16.2073 11.3128 16.125 11.5115 16.125 11.7188C16.125 11.926 16.2073 12.1247 16.3538 12.2712C16.5003 12.4177 16.699 12.5 16.9062 12.5H20.9687C21.1759 12.5 21.3747 12.4177 21.5212 12.2712C21.6677 12.1247 21.75 11.926 21.75 11.7188C21.75 11.5115 21.6677 11.3128 21.5212 11.1663C21.3747 11.0198 21.1759 10.9375 20.9687 10.9375H16.9062ZM4.25 11.5625C4.25 11.3139 4.34877 11.0754 4.52459 10.8996C4.7004 10.7238 4.93886 10.625 5.1875 10.625H9.5625C9.81114 10.625 10.0496 10.7238 10.2254 10.8996C10.4012 11.0754 10.5 11.3139 10.5 11.5625V12.5C10.5 12.5 10.5 14.6875 7.375 14.6875C4.25 14.6875 4.25 12.5 4.25 12.5V11.5625ZM11.6669 13.1313C11.6162 13.3438 11.5452 13.551 11.455 13.75H12.375C12.8723 13.75 13.3492 13.5525 13.7008 13.2008C14.0525 12.8492 14.25 12.3723 14.25 11.875V11.5625C14.25 11.3139 14.1512 11.0754 13.9754 10.8996C13.7996 10.7238 13.5611 10.625 13.3125 10.625H11.5394C11.6744 10.9094 11.75 11.2269 11.75 11.5625V12.535C11.7488 12.597 11.7446 12.659 11.7375 12.7206C11.7231 12.8589 11.6995 12.9961 11.6669 13.1313ZM0.5 3.90625C0.5 2.87025 0.91155 1.87668 1.64411 1.14411C2.37668 0.41155 3.37025 0 4.40625 0H21.5937C22.6297 0 23.6233 0.41155 24.3559 1.14411C25.0884 1.87668 25.5 2.87025 25.5 3.90625V16.0938C25.5 17.1298 25.0884 18.1233 24.3559 18.8559C23.6233 19.5884 22.6297 20 21.5937 20H4.40625C3.37025 20 2.37668 19.5884 1.64411 18.8559C0.91155 18.1233 0.5 17.1298 0.5 16.0938V3.90625ZM4.40625 1.5625C3.78465 1.5625 3.18851 1.80943 2.74897 2.24897C2.30943 2.68851 2.0625 3.28465 2.0625 3.90625V16.0938C2.0625 16.7154 2.30943 17.3115 2.74897 17.751C3.18851 18.1906 3.78465 18.4375 4.40625 18.4375H21.5937C22.2153 18.4375 22.8115 18.1906 23.251 17.751C23.6906 17.3115 23.9375 16.7154 23.9375 16.0938V3.90625C23.9375 3.28465 23.6906 2.68851 23.251 2.24897C22.8115 1.80943 22.2153 1.5625 21.5937 1.5625H4.40625Z" fill="#536FAE"/>
</svg>
